.
..............................Site Info...........................

 -   http://www.scenetime.com  *_*   

SceneTime is going to Close sign up on march/1, hurry up! get in before the doors are closed.

     We care to share . Join us on  http://www.scenetime.com 

    Be the first to get new release at  http://www.scenetime.com

        Seed back for speed


...................................NFO:.................................................[IMG]http://img51.imageshack.us/img51/2306/roadv.jpg[/IMG]


[color=blue][size=4][b]High.Road.2011.BDRip.XVID.AC3.HQ.Hive-CM8[/b][/size][/color]


[b] Thx Hive

CM8 Doing it right the first time :D

Source: Bluray

Video: 720x400 @bitrate 1700 2pass
Audio: English TrueHD AC3 640 to AC3 5.1 @448
Sample: yes included
Subs: yes english in srt /subs[/b]


[url]http://www.imdb.com/title/tt1692084/[/url]


General
Complete name                  : High.Road.2011.BDRip.XVID.AC3.HQ.Hive-CM8.avi
Format                         : AVI
Format/Info                    : Audio Video Interleave
File size                      : 1.28 GiB
Duration                       : 1h 25mn
Overall bit rate               : 2 157 Kbps
Writing application            : Nandub v1.0rc2
Writing library                : Nandub build 1853/release

Video
ID                             : 0
Format                         : MPEG-4 Visual
Format profile                 : Advanced Simple@L5
Format settings, BVOP          : 1
Format settings, QPel          : Yes
Format settings, GMC           : No warppoints
Format settings, Matrix        : Default (H.263)
Muxing mode                    : Packed bitstream
Codec ID                       : XVID
Codec ID/Hint                  : XviD
Duration                       : 1h 25mn
Bit rate                       : 1 699 Kbps
Width                          : 720 pixels
Height                         : 400 pixels
Display aspect ratio           : 16:9
Frame rate                     : 23.976 fps
Color space                    : YUV
Chroma subsampling             : 4:2:0
Bit depth                      : 8 bits
Scan type                      : Progressive
Compression mode               : Lossy
Bits/(Pixel*Frame)             : 0.246
Stream size                    : 1.01 GiB (79%)
Writing library                : XviD 1.2.1 (UTC 2008-12-04)

Audio
ID                             : 1
Format                         : AC-3
Format/Info                    : Audio Coding 3
Mode extension                 : CM (complete main)
Codec ID                       : 2000
Duration                       : 1h 25mn
Bit rate mode                  : Constant
Bit rate                       : 448 Kbps
Channel(s)                     : 6 channels
Channel positions              : Front: L C R, Side: L R, LFE
Sampling rate                  : 48.0 KHz
Bit depth                      : 16 bits
Compression mode               : Lossy
Stream size                    : 273 MiB (21%)
Alignment                      : Split accross interleaves
Interleave, duration           : 42 ms (1.00 video frame)
Interleave, preload duration   : 500 ms



High Road showcases a totally improvised script about Glenn "Fitz" Fitzgerald (James Pumphery), 
a young man whose loyalties are split among his band, his girlfriend Monica (Abby Elliott) and selling weed. 


Kathryn Burns	... 	Orchid
Lizzy Caplan	... 	Sheila
Michael Coleman	... 	Bakersfield Bouncer
Andrew Daly	... 	Mr. Doobin (as Andy Daly)
Abby Elliott	... 	Monica


[img]http://img651.imageshack.us/img651/228/hhhhrhvrhrrr.png[/img]
[img]http://img841.imageshack.us/img841/5232/hhhhrhvrrrr.png[/img]
[img]http://img819.imageshack.us/img819/5378/hhhhrhrrrr.png[/img]
[img]http://img705.imageshack.us/img705/3285/hhhhrrrr.png[/img]
[img]http://img638.imageshack.us/img638/5671/hhhrrr.png[/img]
[img]http://img221.imageshack.us/img221/3277/hhrrv.png[/img]
[img]http://img94.imageshack.us/img94/4753/96639171.png[/img]




Greetz

ViSiON,SPK,SceneLovers,PRESTiGE,SANTi,3LT0N,YanKeeS,MAGNET,THC,T0XiC,LKRG,Feel-Free,FLAWL3SS,
WBZ,BHRG,SiC,26K,NOVA,D2U,TED,COPYxRIGHT,jtr,Rapeseed,SAFC,goldadvance,KaN1vE,Unevano,Pinnz,Wayne
Mr Hive,and most P2P groups
Great Work Guys :D


LOOKING FOR ANYTHING YOU WANT TO LOOK AND SOUND BETTER

CM8@hushmail.com